<svg id="Слой_1" xmlns="http://www.w3.org/2000/svg" viewBox="0 0 271 71"><style>.st0{fill:#0079c0}</style><path class="st0" d="M131.8.9h1.8v68.4h-1.8V.9zM93.6 16.8h-3c-2.5 0-2.7 2-2.7 3.3v12c0 1.3.1 3.3 2.7 3.3h3c2.5 0 2.7-2 2.7-3.3v-12c-.1-1.3-.2-3.3-2.7-3.3m-1.5 16.3c-.4 0-.8-.3-.8-.7V19.7c0-.4.4-.7.8-.7s.7.3.8.7v12.6c0 .5-.4.8-.8.8M37.9 16.8h6.8v2.3h-3.2v16.3h-3.6V16.8zm11.3 11.6l.6-9.3h.2l.6 9.3h-1.4zm-4 7h3.5l.3-4.9h1.7l.3 4.9h3.5l-1.9-18.6H47l-1.8 18.6zm14.5-6.5v3.5c0 .5.4.6.6.6.3 0 .6-.3.6-.6v-4.3c0-.6-.1-1.2-1.4-1.2H58v-2h1.5c1 0 1.4-.2 1.4-1.4v-3.7c0-.3-.2-.6-.6-.6-.2 0-.6.1-.6.6v3h-3.6v-2.6c0-1.3.2-3.3 2.7-3.3h3c2.5 0 2.7 2 2.7 3.3v3c0 2-1.4 2.6-2.4 2.5v.2c2.4-.1 2.4 1.9 2.4 2.5v3.7c0 1.3-.2 3.3-2.7 3.3h-3c-2.5 0-2.7-2-2.7-3.3v-3.2h3.6M66.7 16.8H75v18.6h-3.3V19.1h-1.6v16.3h-3.3l-.1-18.6zM81.2 27v-7.9h.9c.4 0 .7.3.7.9v6.1c0 .6-.3.9-.7.9h-.9m-3.6 8.4h3.6v-6.3h2c2.5 0 2.9-2 2.9-3.3v-5.6c0-1.3-.4-3.3-2.9-3.3h-5.6v18.5zm30-18.6h4.6v18.6h-3.6V23.8h-.1l-1.8 11.7h-2.9L102 23.8h-.1v11.7h-3.6V16.8h4.6l2.3 13.1 2.4-13.1zm-77-6.5c-1.1-4.9-4-9-4.3-9.6-.6.9-2.9 4.5-4 8.4-1.3 4.4-1.4 8.3-1 12.1.4 3.8 2.1 7.8 2.1 7.8.9 2.1 2.2 4.3 3 5.4 1.2-1.6 4.1-6.4 4.9-12.6.4-3.5.4-6.5-.7-11.5m-4.3 22.8c-.6-1-1.4-3-1.5-6.1 0-3 1.2-5.5 1.5-6 .3.5 1.3 2.7 1.5 5.8 0 2.9-1 5.3-1.5 6.3m4-14.4c0 1.9-.3 3.9-.6 5.1.1-2.1-.1-4.9-.6-7.2s-1.8-6-2.9-7.8c-1 1.7-2.2 4.9-2.8 7.8-.6 2.8-.7 6.3-.7 7.3-.2-.9-.6-4-.5-7.1.1-2.6.7-5.2 1-6.4 1.3-4 2.7-6.6 2.9-7 .3.4 2.1 3.6 3 6.9 1 3.3 1.2 6.5 1.2 8.4m-11 16.7v5.8c2-2 5.4-2 7.4 0s2 5.3 0 7.4c-2 2-4.7 3-7.4 3s-5.4-1-7.4-3c-3.6-3.6-4-9.1-1.3-13.2.4-.5.8-1.1 1.3-1.6 2-2 4.7-3 7.4-3V16.9C9 16.9.7 25.2.7 35.5.7 45.7 9 54 19.3 54c5.4 0 10.2-2.3 13.6-5.9V35.4H19.3M106.5 48.2h-.4v2.1h.4c.4 0 .6-.1.6-.6v-1c0-.4-.2-.5-.6-.5m-30.2-2.5H76v3.8h.3c.4 0 .6-.1.6-.6v-2.6c0-.5-.2-.6-.6-.6m-3 .5v2.6c0 .5.2.6.6.6h.3v-3.8h-.3c-.4.1-.6.2-.6.6m39-4.6H37.9V54h74.4V41.6zM46 51.7h-1.9v-3.5h-1v3.5h-1.9v-8.1h1.9v3.1h1v-3.1H46v8.1zm15.6-6.5H59v1.6h2.3v1.5H59v1.9h2.6v1.5h-4.5v-8.1h4.5v1.6zm17.1 3.6c0 1.6-.8 2.1-2.7 2.1v.8h-1.8v-.8c-1.9 0-2.7-.4-2.7-2.1v-2.5c0-1.6.8-2.1 2.7-2.1v-.6H76v.6c1.9 0 2.7.4 2.7 2.1v2.5zm14.5-3.6h-1.4v6.6H90v-6.6h-1.5v-1.5h4.8v1.5zm15.7 4.4c0 1.8-.8 2.1-2.9 2.1h-1.9v-8.1h1.9v3.1h.3c1.9 0 2.5.4 2.5 2v.9z"/><g><path class="st0" d="M158.1 30.7c-1.4 0-2.7-.5-3.6-1.5-1.4-1.4-1.3-2.9-1.3-5.5 0-2.7 0-4.2 1.3-5.5.9-.9 2.2-1.5 3.6-1.5 2.5 0 4.4 1.5 4.9 4.2h-2.1c-.3-1.4-1.3-2.4-2.8-2.4-.8 0-1.5.3-2 .8-.7.7-.8 1.5-.8 4.3s.2 3.6.8 4.3c.5.5 1.2.8 2 .8 1.5 0 2.5-1 2.8-2.4h2.1c-.5 2.9-2.4 4.4-4.9 4.4zM175.7 30.6v-9.2l-3.2 6.7H171l-3.2-6.7v9.2h-2.1V16.8h2.1l4 8.6 4-8.6h2.1v13.8h-2.2zM189.5 30.6l-1-2.8h-5.4l-1 2.8H180l5.1-13.8h1.7l5 13.8h-2.3zM185.9 20l-2.2 6.1h4.3l-2.1-6.1zM192.9 26.5h2.1c.3 1.4 1.3 2.4 2.8 2.4 1.5 0 2.6-.9 2.6-2.2 0-1.4-.9-2.2-2.4-2.2h-1.8v-1.7h1.8c1.4 0 2.2-.8 2.2-2.1s-.9-2.1-2.4-2.1-2.5 1-2.8 2.4h-2.1c.5-2.7 2.4-4.2 4.9-4.2 2.6 0 4.5 1.5 4.5 3.7 0 1.4-.7 2.5-1.9 3 1.3.5 2.1 1.6 2.1 3.2 0 2.4-2 4-4.8 4-2.4 0-4.4-1.5-4.8-4.2zM214.9 23.9c0 2.3 0 4-1.3 5.3-.9 1-2.2 1.5-3.6 1.5s-2.7-.5-3.6-1.5c-1.3-1.3-1.3-3.2-1.3-5.3V23c0-2.3.2-3.7 1.3-4.9.9-.9 2.2-1.5 3.6-1.5s2.7.5 3.6 1.5c1.1 1.1 1.3 2.6 1.3 4.6v1.2zm-3-4.4c-.5-.6-1.3-.9-2.1-.9s-1.5.3-2.1.9c-.8.8-.8 2.2-.8 3.9v1.2c0 1.4.1 2.7.8 3.4.6.6 1.3.9 2.1.9s1.5-.3 2.1-.9c.8-.9.8-2.1.8-4.4.1-2.1 0-3.3-.8-4.1zM224.7 30.6v-5.4c-.8.2-2.3.4-3.7.4-1.8 0-3.6-.9-3.6-3.4v-5.4h2.1v4.9c0 1.6 1 2 2.1 2 .9 0 2.3-.2 3.1-.4v-6.6h2.1v13.8h-2.1zM237.8 30.6v-6h-5.6v6h-2.1V16.8h2.1v5.9h5.6v-5.9h2.1v13.8h-2.1zM248.5 30.6h-5.3V16.8h2.1v5.4h3.2c2.6 0 4.4 1.7 4.4 4.2s-1.8 4.2-4.4 4.2zm-.1-6.5h-3v4.6h3c1.5 0 2.4-.9 2.4-2.3s-.9-2.3-2.4-2.3zm6.2 6.5V16.8h2.1v13.8h-2.1zM260 30.6V16.8h8.8v1.9h-6.7v4h5.7v1.9h-5.7v4.1h6.7v1.9H260zM163.3 54v-9.3l-3.2 6.8h-1.6l-3.3-6.8V54h-2.1V40.1h2.1l4.1 8.6 4-8.6h2.1V54h-2.1zM177.3 54l-1-2.8h-5.5l-1 2.8h-2.2l5.1-13.9h1.7l5.1 13.9h-2.2zm-3.7-10.7l-2.2 6.2h4.3l-2.1-6.2zM185.1 42v12H183V42h-3.8v-1.9h9.8V42h-3.9zM191.3 54V40.1h8.9V42h-6.8v4.1h5.8V48h-5.8v4.2h6.8V54h-8.9zM208.1 48.6H205V54h-2.1V40.1h5.3c2.6 0 4.4 1.7 4.4 4.2s-1.9 4.3-4.5 4.3zM208 42h-3v4.6h3c1.5 0 2.5-.9 2.5-2.3s-1-2.3-2.5-2.3zM223.2 54V43.9L217 54h-1.9V40.1h2.1v10.1l6.2-10.1h1.9V54h-2.1zM237.1 54l-1-2.8h-5.5l-1 2.8h-2.2l5.1-13.9h1.7l5.1 13.9h-2.2zm-3.6-10.7l-2.2 6.2h4.3l-2.1-6.2zM249.9 54V42h-4v4.4c0 5.8-1.4 7.6-4.2 7.6h-.9v-1.9h.4c1.5 0 2.7-1 2.7-6v-6h8.2V54h-2.2zM260.7 54h-5.3V40.1h2.1v5.5h3.2c2.7 0 4.4 1.7 4.4 4.2s-1.8 4.2-4.4 4.2zm-.2-6.5h-3v4.6h3c1.5 0 2.5-.9 2.5-2.3s-.9-2.3-2.5-2.3zm6.3 6.5V40.1h2.1V54h-2.1z"/></g></svg>